<?xml version="1.0" standalone="no"?><!DOCTYPE svg PUBLIC "-//W3C//DTD SVG 1.1//EN" "http://www.w3.org/Graphics/SVG/1.1/DTD/svg11.dtd"><svg t="1669277683973" class="icon" viewBox="0 0 1505 1024" version="1.1" xmlns="http://www.w3.org/2000/svg" p-id="2609" xmlns:xlink="http://www.w3.org/1999/xlink" width="293.9453125" height="200"><path d="M256.104629 876.286334c-10.828633 0-21.518438-4.997831-28.321042-14.577006-33.874187-47.340564-35.401302-78.021692-35.401301-132.581345 0-49.145336 13.744035-97.735358 39.704989-140.21692 24.989154-40.815618 60.806941-75.661605 103.704989-100.650759 16.520607-9.718004 37.761388-4.02603 47.479393 12.494577 9.718004 16.520607 4.02603 37.761388-12.494577 47.479392-68.303688 39.843818-108.980477 107.453362-108.980478 181.032538 0 49.145336 0.832972 61.778742 22.490239 92.182213 11.106291 15.548807 7.496746 37.206074-8.052061 48.451193-5.969631 4.303688-13.049892 6.386117-20.130151 6.386117z" fill="#2A9B74" p-id="2610"></path><path d="M218.482069 1024c-9.579176 0-18.880694-4.02603-25.544469-11.106291-7.913232-8.607375-10.967462-20.685466-8.190889-32.069414l37.62256-147.574837c4.720174-18.603037 23.600868-29.848156 42.203904-25.127983 18.603037 4.720174 29.848156 23.600868 25.127983 42.203905l-24.43384 95.791757 122.030369-20.824295c6.247289-1.110629 12.494577-0.416486 18.32538 1.804772 29.292842 11.383948 60.529284 17.075922 92.737527 17.075922 69.691974 0 135.496746-27.765727 180.616052-76.078091 13.049892-14.021692 34.984816-14.715835 49.006507-1.665944 14.021692 13.049892 14.715835 34.984816 1.665944 49.006508-58.169197 62.334056-142.438178 98.151844-231.288503 98.151843-37.483731 0-73.856833-6.247289-108.563992-18.464208L224.4517 1023.444685c-1.943601 0.277657-4.02603 0.555315-5.969631 0.555315z" fill="#2A9B74" p-id="2611"></path><path d="M1233.041722 601.266811l58.86334 231.010846L1018.551483 785.631236c-50.672451 19.574837-106.342733 30.542299-164.650759 30.5423-234.481562 0-424.537961-174.924078-424.537961-390.663775S619.280334 34.707158 853.900724 34.707158s424.537961 174.924078 424.537961 390.663775c0 79.27115-1.388286 114.255965-45.396963 175.895878" fill="#CCE187" p-id="2612"></path><path d="M1291.905062 866.984816c-1.943601 0-3.887202-0.138829-5.830802-0.555315l-264.052061-45.119306C968.573175 840.885033 911.931093 850.741866 853.900724 850.741866c-122.169197 0-237.119306-43.869848-323.748373-123.557484-42.342733-39.010846-75.661605-84.546638-98.984816-135.219089-24.295011-52.754881-36.511931-108.841649-36.51193-166.59436s12.355748-113.839479 36.51193-166.59436c23.32321-50.672451 56.642082-96.208243 98.984816-135.219089 86.629067-79.687636 201.579176-123.557484 323.748373-123.557484s237.119306 43.869848 323.748373 123.557484c42.342733 39.010846 75.661605 84.546638 98.984816 135.219089 24.295011 52.754881 36.511931 108.841649 36.51193 166.59436 0 77.882863-1.943601 120.780911-42.62039 182.559653l54.976139 215.739696c2.915401 11.383948-0.138829 23.462039-8.19089 32.069414-6.524946 7.219089-15.826464 11.245119-25.40564 11.24512zM1018.551483 750.924078c1.943601 0 3.887202 0.138829 5.830803 0.555315l220.737527 37.761388-45.67462-179.227766c-2.498915-9.856833-0.555315-20.407809 5.414316-28.737527 37.206074-52.060738 38.872017-77.049892 38.872018-155.626898 0-196.303688-174.924078-355.956616-389.830803-355.956616s-389.830803 159.652928-389.830803 355.956616c0 196.303688 174.924078 355.956616 389.830803 355.956616 52.754881 0 103.982646-9.440347 152.156182-28.182213 4.02603-1.804772 8.190889-2.498915 12.494577-2.498915z" fill="#2A9B74" p-id="2613"></path><path d="M929.007015 470.490239c0 46.091106-37.483731 83.574837-83.574838 83.574837s-83.574837-37.483731-83.574837-83.574837h167.149675z" fill="#2A9B74" p-id="2614"></path><path d="M845.432177 574.889371c-57.613883 0-104.399132-46.785249-104.399132-104.399132 0-11.522777 9.301518-20.824295 20.824295-20.824295h167.149675c11.522777 0 20.824295 9.301518 20.824295 20.824295 0 57.475054-46.785249 104.399132-104.399133 104.399132z m-59.140998-83.574837c8.607375 24.433839 31.930586 41.926247 59.140998 41.926247s50.533623-17.492408 59.140998-41.926247H786.291179z" fill="#2A9B74" p-id="2615"></path><path d="M865.423501 543.930586H825.440854c-11.661605 0-21.37961-9.579176-21.379609-21.37961v-3.193058c0-11.661605 9.579176-21.37961 21.379609-21.37961h39.982647c11.661605 0 21.37961 9.579176 21.379609 21.37961v3.193058c0 11.800434-9.579176 21.37961-21.379609 21.37961z" fill="#FFFFFF" p-id="2616"></path><path d="M865.423501 544.624729H825.440854c-12.078091 0-22.073753-9.856833-22.073753-22.073753v-3.193058c0-12.078091 9.856833-22.073753 22.073753-22.073753h39.982647c12.078091 0 22.073753 9.856833 22.073752 22.073753v3.193058c0 12.21692-9.856833 22.073753-22.073752 22.073753z m-39.982647-45.813449c-11.383948 0-20.685466 9.301518-20.685466 20.685466v3.193059c0 11.383948 9.301518 20.685466 20.685466 20.685466h39.982647c11.383948 0 20.685466-9.301518 20.685466-20.685466v-3.193059c0-11.383948-9.301518-20.685466-20.685466-20.685466H825.440854z" fill="#2A9B74" p-id="2617"></path><path d="M682.308533 383.722343m-47.201735 0a47.201735 47.201735 0 1 0 94.40347 0 47.201735 47.201735 0 1 0-94.40347 0Z" fill="#2A9B74" p-id="2618"></path><path d="M1007.584021 383.722343m-47.201735 0a47.201735 47.201735 0 1 0 94.40347 0 47.201735 47.201735 0 1 0-94.40347 0Z" fill="#2A9B74" p-id="2619"></path></svg>