<?xml version="1.0" standalone="no"?><!DOCTYPE svg PUBLIC "-//W3C//DTD SVG 1.1//EN" "http://www.w3.org/Graphics/SVG/1.1/DTD/svg11.dtd"><svg t="1697089242602" class="icon" viewBox="0 0 1024 1024" version="1.1" xmlns="http://www.w3.org/2000/svg" p-id="4045" xmlns:xlink="http://www.w3.org/1999/xlink" width="200" height="200"><path d="M510.281869 66.514903c-245.173932 0-444.629613 199.462844-444.629613 444.611194 0 245.184165 199.456704 444.641893 444.629613 444.641893 245.167792 0 444.623473-199.491497 444.623473-444.641893C954.905342 265.977747 755.450684 66.514903 510.281869 66.514903zM510.281869 914.725224c-222.541469 0-403.585825-181.046403-403.585825-403.598104 0-222.517933 181.044356-403.568429 403.585825-403.568429 222.537376 0 403.580708 181.050496 403.580708 403.568429C913.862577 733.648123 732.819245 914.725224 510.281869 914.725224zM530.568914 448.603111c0-39.662325-40.539298-39.825031-40.539298 0L490.029616 773.438361c0 39.33896 41.371246 39.314401 40.539298 0L530.568914 448.603111zM489.75844 353.813235l41.042765 0 0-68.403926L489.75844 285.409308 489.75844 353.813235z" fill="#2A2B2B" p-id="4046"></path></svg>