<?xml version="1.0" standalone="no"?><!DOCTYPE svg PUBLIC "-//W3C//DTD SVG 1.1//EN" "http://www.w3.org/Graphics/SVG/1.1/DTD/svg11.dtd"><svg t="1707815035989" class="icon" viewBox="0 0 1024 1024" version="1.1" xmlns="http://www.w3.org/2000/svg" p-id="5834" xmlns:xlink="http://www.w3.org/1999/xlink" width="200" height="200"><path d="M701.866667 938.666667H106.666667V224C106.666667 147.2 168.533333 85.333333 245.333333 85.333333h317.866667c76.8 0 138.666667 61.866667 138.666667 138.666667V938.666667zM170.666667 874.666667h467.2V224c0-40.533333-34.133333-74.666667-74.666667-74.666667H245.333333C204.8 149.333333 170.666667 183.466667 170.666667 224V874.666667z" fill="#0000FF" p-id="5835"></path><path d="M256 228.266667h85.333333c12.8 0 21.333333 8.533333 21.333334 21.333333v85.333333c0 12.8-8.533333 21.333333-21.333334 21.333334h-85.333333c-12.8 0-21.333333-8.533333-21.333333-21.333334v-85.333333c0-10.666667 10.666667-21.333333 21.333333-21.333333zM467.2 228.266667h85.333333c12.8 0 21.333333 8.533333 21.333334 21.333333v85.333333c0 12.8-8.533333 21.333333-21.333334 21.333334h-85.333333c-12.8 0-21.333333-8.533333-21.333333-21.333334v-85.333333c0-10.666667 8.533333-21.333333 21.333333-21.333333zM256 448h85.333333c12.8 0 21.333333 8.533333 21.333334 21.333333v85.333334c0 12.8-8.533333 21.333333-21.333334 21.333333h-85.333333c-12.8 0-21.333333-8.533333-21.333333-21.333333v-85.333334c0-12.8 10.666667-21.333333 21.333333-21.333333zM467.2 448h85.333333c12.8 0 21.333333 8.533333 21.333334 21.333333v85.333334c0 12.8-8.533333 21.333333-21.333334 21.333333h-85.333333c-12.8 0-21.333333-8.533333-21.333333-21.333333v-85.333334c0-12.8 8.533333-21.333333 21.333333-21.333333zM256 667.733333h85.333333c12.8 0 21.333333 8.533333 21.333334 21.333334v85.333333c0 12.8-8.533333 21.333333-21.333334 21.333333h-85.333333c-12.8 0-21.333333-8.533333-21.333333-21.333333v-85.333333c0-12.8 10.666667-21.333333 21.333333-21.333334zM467.2 667.733333h85.333333c12.8 0 21.333333 8.533333 21.333334 21.333334v85.333333c0 12.8-8.533333 21.333333-21.333334 21.333333h-85.333333c-12.8 0-21.333333-8.533333-21.333333-21.333333v-85.333333c0-12.8 8.533333-21.333333 21.333333-21.333334zM917.333333 938.666667H674.133333v-64H853.333333V437.333333c0-40.533333-34.133333-74.666667-74.666666-74.666666h-104.533334v-64h104.533334c76.8 0 138.666667 61.866667 138.666666 138.666666V938.666667z" fill="#0000FF" p-id="5836"></path><path d="M949.333333 938.666667h-874.666666c-17.066667 0-32-14.933333-32-32S57.6 874.666667 74.666667 874.666667h874.666666c17.066667 0 32 14.933333 32 32s-14.933333 32-32 32z" fill="#0000FF" p-id="5837"></path></svg>