<?xml version="1.0" standalone="no"?><!DOCTYPE svg PUBLIC "-//W3C//DTD SVG 1.1//EN" "http://www.w3.org/Graphics/SVG/1.1/DTD/svg11.dtd"><svg t="1707814689470" class="icon" viewBox="0 0 1024 1024" version="1.1" xmlns="http://www.w3.org/2000/svg" p-id="4360" xmlns:xlink="http://www.w3.org/1999/xlink" width="200" height="200"><path d="M854.857 992H169.143C93.403 992 32 930.596 32 854.857V169.143C32 93.403 93.404 32 169.143 32h685.714C930.596 32 992 93.404 992 169.143v685.714C992 930.596 930.596 992 854.857 992z" fill="#1296db" p-id="4361" data-spm-anchor-id="a313x.search_index.0.i0.6d643a812efZ2m" class="selected"></path><path d="M832 856H192c-13.25 0-24-10.75-24-24s10.75-24 24-24h640c13.25 0 24 10.75 24 24s-10.75 24-24 24z" fill="#1F4CA4" p-id="4362"></path><path d="M402.08 684.411l208.05 18.89a16.02 16.02 0 0 0 15.58-8.43l107.85-202.93c3.3-6.21 2.16-13.85-2.81-18.82l-131.87-131.86a15.986 15.986 0 0 0-18.82-2.81l-202.93 107.85a16.003 16.003 0 0 0-8.43 15.58l18.89 208.05c0.7 7.68 6.8 13.78 14.49 14.48z" fill="#FFFFFF" p-id="4363"></path><path d="M596.31 727.371c-1.21 0-2.43-0.05-3.65-0.17l-238.02-21.62c-19.24-1.75-34.47-16.98-36.22-36.22l-21.62-238.01a39.923 39.923 0 0 1 21.06-38.94l231.72-123.16c15.63-8.31 34.54-5.48 47.06 7.04l151.07 151.07c12.52 12.52 15.34 31.43 7.04 47.06l-123.16 231.72a39.906 39.906 0 0 1-35.28 21.23z m-217.41-67.78l202.22 18.36a16.02 16.02 0 0 0 15.58-8.43l107.34-201.96c3.3-6.21 2.16-13.85-2.81-18.82l-125.98-125.96a15.986 15.986 0 0 0-18.82-2.81l-201.96 107.34a16.003 16.003 0 0 0-8.43 15.58l18.36 202.22c0.71 7.69 6.8 13.78 14.5 14.48z" fill="#1F4CA4" p-id="4364"></path><path d="M770.42 366.719l-113.14-113.14c-18.75-18.75-18.75-49.14 0-67.88 18.75-18.75 49.14-18.75 67.88 0l113.14 113.14c18.75 18.75 18.75 49.14 0 67.88-18.75 18.74-49.14 18.74-67.88 0z" fill="#FFFFFF" p-id="4365"></path><path d="M804.36 404.741c-18.44 0-36.88-7.02-50.91-21.05l-113.14-113.14c-28.07-28.07-28.07-73.75 0-101.82 13.6-13.6 31.68-21.09 50.91-21.09 19.23 0 37.31 7.49 50.91 21.09l113.14 113.14c28.07 28.07 28.07 73.75 0 101.82-14.04 14.04-32.47 21.05-50.91 21.05z m-113.14-209.1c-6.41 0-12.44 2.5-16.97 7.03-9.36 9.36-9.36 24.58 0 33.94l113.14 113.14c9.36 9.36 24.58 9.36 33.94 0s9.36-24.58 0-33.94l-113.14-113.14a23.85 23.85 0 0 0-16.97-7.03zM515.82 585.319c42.603 0 77.14-34.537 77.14-77.14s-34.537-77.14-77.14-77.14-77.14 34.537-77.14 77.14 34.537 77.14 77.14 77.14z" fill="#1F4CA4" p-id="4366"></path><path d="M343.52 700.48c-5.12 0-10.24-1.95-14.14-5.86-7.81-7.81-7.81-20.47 0-28.29l125.08-125.08c7.81-7.81 20.47-7.81 28.28 0 7.81 7.81 7.81 20.47 0 28.29L357.66 694.62c-3.9 3.9-9.02 5.86-14.14 5.86z" fill="#1F4CA4" p-id="4367"></path><path d="M515.82 550.18c23.196 0 42-18.804 42-42s-18.804-42-42-42-42 18.804-42 42 18.804 42 42 42z" fill="#FFB9B3" p-id="4368"></path></svg>