<?xml version="1.0" standalone="no"?><!DOCTYPE svg PUBLIC "-//W3C//DTD SVG 1.1//EN" "http://www.w3.org/Graphics/SVG/1.1/DTD/svg11.dtd"><svg t="1718272033800" class="icon" viewBox="0 0 1024 1024" version="1.1" xmlns="http://www.w3.org/2000/svg" p-id="1523" xmlns:xlink="http://www.w3.org/1999/xlink" width="200" height="200"><path d="M160 384a32 32 0 1 0-0.021333-64.021333A32 32 0 0 0 160 384z m0 256a32 32 0 1 0 0.021333 64.021333A32 32 0 0 0 160 640zM832 0H192a192 192 0 0 0-192 192v640a192 192 0 0 0 192 192h640c105.984 0 192-85.952 192-192V192c0-106.048-86.016-192-192-192z m64 832c0 35.392-28.608 64-64 64H192a64 64 0 0 1-64-64v-64a64 64 0 0 1-64-64v-64c0-35.328 28.672-64 64-64v-128a64 64 0 0 1-64-64v-64c0-35.328 28.672-64 64-64V192c0-35.328 28.672-64 64-64h640a64 64 0 0 1 64 64v640zM768 192H256c-35.328 0-64 28.672-64 64 35.328 0 64 28.672 64 64v64a64 64 0 0 1-64 64v128c35.328 0 64 28.672 64 64v64a64 64 0 0 1-64 64 64 64 0 0 0 64 64h512c35.392 0 64-28.608 64-64V256a64 64 0 0 0-64-64zM512 704c-106.048 0-192-85.952-192-192s85.952-192 192-192c105.984 0 192 85.952 192 192s-86.016 192-192 192z m0-320c-70.656 0-128 57.344-128 128s57.344 128 128 128 128-57.344 128-128-57.344-128-128-128z" fill="#2c2c2c" p-id="1524"></path></svg>