<?xml version="1.0" standalone="no"?><!DOCTYPE svg PUBLIC "-//W3C//DTD SVG 1.1//EN" "http://www.w3.org/Graphics/SVG/1.1/DTD/svg11.dtd"><svg t="1707815236405" class="icon" viewBox="0 0 1024 1024" version="1.1" xmlns="http://www.w3.org/2000/svg" p-id="8066" xmlns:xlink="http://www.w3.org/1999/xlink" width="200" height="200"><path d="M785.3 878.8c-10.1 0-18.8-7.6-19.9-17.9-1.2-11 6.8-20.8 17.8-22l42.4-4.5c5.6-0.6 11-2.7 15.1-5.9 76.6-59.8 88.7-149.8 85.4-214.7-1.6-32.1-6.5-65-11.2-96.8-1-1.9-1.6-4-1.9-6.3-7.9-59.9-15-123.4-7.9-183.5 6.6-55.6 24.6-101.1 54.8-138.1l-35.6 3.8c-11 1.2-20.8-6.8-22-17.8-1.2-11 6.8-20.8 17.8-22l71.7-7.7c12.1-1.3 23.4 5.1 28.2 15.8 4.6 10.3 1.9 22.4-6.7 30-82.9 73.6-76.9 187.5-61.3 308.1 0.8 1.7 1.4 3.6 1.7 5.6l0.5 3.6c5 33.5 10.2 68.2 12 103.1 2.5 49.6-3.8 95.2-18.7 135.5-16.8 45.5-44.4 83.4-82 112.8-10.1 7.9-22.3 12.8-35.5 14.2l-42.4 4.5c-0.9 0.1-1.6 0.2-2.3 0.2z" fill="#1296d1" p-id="8067"></path><path d="M39 940.5c-12.6 0-23.7-7.8-27.6-19.3-3.7-11.2 0.1-23.2 9.8-30.4 108-80.9 112.1-218.9 105.4-365.8-0.8-2-1.3-4.1-1.5-6.3l-0.3-4.3c-2.6-40.4-5.4-82.3-4-123.9 1.9-58.9 13.8-112.2 35.4-158.3 24.3-51.9 60.6-93.9 107.7-124.8 12.2-8 26.6-12.4 41.7-12.8l585.2-13.8h0.7c12.6 0 23.7 7.8 27.6 19.3 3.7 11.2-0.1 23.2-9.8 30.4C801.4 211.4 797.2 349.3 804 496.2c0.8 2 1.3 4.1 1.5 6.3l0.3 4.4c2.6 40.4 5.4 82.2 4 123.8-1.9 58.9-13.8 112.2-35.4 158.3-24.4 52-60.6 94-107.8 124.9-12.2 8-26.6 12.4-41.7 12.8L39.8 940.4c-0.3 0.1-0.5 0.1-0.8 0.1z m125.6-431.1c0.9 2.2 1.5 4.5 1.6 7 3.5 72 5.6 148.3-8.8 218.9-14 68.7-42 122.8-85.1 164.4l551.7-13c7.5-0.2 14.8-2.4 20.7-6.2 98.8-64.7 122.6-172.2 125.1-251 1.2-38.9-1.3-78.9-3.8-117.7-0.9-2.2-1.5-4.5-1.6-7-3.5-72-5.6-148.3 8.8-218.9 14-68.7 42-122.8 85.1-164.4l-551.7 13c-7.5 0.2-14.8 2.4-20.7 6.2-98.8 64.7-122.6 172.2-125.1 251-1.3 39 1.3 79 3.8 117.7z" fill="#1296d1" p-id="8068"></path><path d="M286.3 364.4v-13.3c3.9-3.4 7.8-6.8 11.8-10 4-3.2 8.4-6.7 13.3-10.5s10-7.4 15.2-10.8c5.2-3.4 11.2-7 17.9-10.7 5.9 8.6 8.9 16.9 8.9 24.7 0 4.3-0.9 9.1-2.7 14.4-1.8 5.3-4.3 11.3-7.5 18.1-3.2 6.8-7.1 15.3-11.9 25.6-12.7 28.1-22.2 51.3-28.5 69.6s-9.5 30.7-9.5 37.3c0 0.5 0.4 2.6 1.1 6.3 0.8 3.7 1.1 6.4 1.1 8.2 0 3.1-0.9 4.8-2.7 5-1.8 0.2-4.3-0.4-7.5-1.9-8.3-4.1-13.9-8-16.7-11.6-2.8-3.7-4.2-8.4-4.2-14.2 0-10.5 3.8-26.7 11.5-48.7 3.9-11.1 8.4-22.2 13.6-33.2 5.2-11 10.9-22.1 17.2-33.4 6.3-11.3 12.3-21.6 17.9-31.1-12.2 5-25 11.8-38.3 20.2zM486.9 331.2c5.1 2.3 8.8 6 11.1 11.1 2.3 5.1 3.5 12.7 3.5 22.7 0 15.2-3 31.6-9.1 49.2s-14.6 34.1-25.6 49.5c-10.9 15.4-23.5 28.1-37.6 38.2-15.8 11.2-28.8 16.8-39 16.8-7.9 0-15.3-2.4-22.2-7.1-6.9-4.7-12.4-11.5-16.5-20.3s-6.1-19.1-6.1-30.8c0-16.4 4.5-33.6 13.5-51.7s20.4-34.4 34.3-48.9c13.9-14.6 28.3-25.8 43.3-33.6 15-7.9 27.9-10.6 38.7-8.2 7.1 1.4 11 5.8 11.7 13.1z m-37.2 31.7l5.7-11.8c-6.4 3.2-12 6.4-16.8 9.5-4.9 3.1-10.4 7.5-16.7 13.3-6.3 5.7-12.9 12.9-19.8 21.5-11.2 14.3-19.7 28.2-25.4 41.6-5.7 13.4-8.6 24.8-8.6 34.2 0 13.5 4.5 20.2 13.6 20.2 5.2 0 12.6-2.8 22.2-8.4 9.6-5.6 19.9-13.3 30.6-23.1 10.3-9.5 19.4-20.1 27.2-31.9 7.8-11.7 13.8-23.3 18-34.8 4.1-11.4 6.2-21.2 6.2-29.3 0-5.2-1.1-9.2-3.4-12-2.3-2.9-5.1-4.3-8.6-4.3-3.2 0-6.7 1.2-10.3 3.7-3.5 2.6-8.1 6.4-13.9 11.6zM632 331.2c5.1 2.3 8.8 6 11.1 11.1 2.3 5.1 3.5 12.7 3.5 22.7 0 15.2-3 31.6-9.1 49.2s-14.6 34.1-25.6 49.5c-10.9 15.4-23.5 28.1-37.6 38.2-15.8 11.2-28.8 16.8-39 16.8-7.9 0-15.3-2.4-22.2-7.1-6.9-4.7-12.4-11.5-16.5-20.3s-6.1-19.1-6.1-30.8c0-16.4 4.5-33.6 13.5-51.7s20.4-34.4 34.3-48.9c13.9-14.6 28.3-25.8 43.3-33.6 15-7.9 27.9-10.6 38.7-8.2 7.1 1.4 10.9 5.8 11.7 13.1z m-37.2 31.7l5.7-11.8c-6.4 3.2-12 6.4-16.8 9.5-4.9 3.1-10.4 7.5-16.7 13.3-6.3 5.7-12.9 12.9-19.8 21.5-11.2 14.3-19.7 28.2-25.4 41.6-5.7 13.4-8.6 24.8-8.6 34.2 0 13.5 4.5 20.2 13.6 20.2 5.2 0 12.6-2.8 22.2-8.4 9.6-5.6 19.9-13.3 30.6-23.1 10.3-9.5 19.4-20.1 27.3-31.9 7.8-11.7 13.8-23.3 17.9-34.8 4.1-11.4 6.2-21.2 6.2-29.3 0-5.2-1.1-9.2-3.4-12-2.3-2.9-5.1-4.3-8.6-4.3-3.2 0-6.7 1.2-10.3 3.7-3.5 2.6-8.2 6.4-13.9 11.6z" fill="#1296d1" p-id="8069"></path><path d="M365.2 613.9c-29.6-1.3 129.9-43.3 144.8-40.3 0.1 0-61.1 44.1-144.8 40.3zM193.5 801.2c23.9-16.4 297.1-165.7 543.5-180.7" fill="#1296d1" p-id="8070"></path></svg>